<svg width="77" height="21" viewBox="0 0 77 21" fill="none" xmlns="http://www.w3.org/2000/svg">
    <path
        d="M3.488 16.136L2.912 13.376L8.912 7.352H12.848L3.488 16.136ZM0.728 20V2.24H3.68V20H0.728ZM9.272 20L4.616 14.36L6.704 12.584L12.92 20H9.272ZM16.9756 20.24C16.0636 20.24 15.2716 20.04 14.5996 19.64C13.9276 19.224 13.4156 18.64 13.0636 17.888C12.7116 17.12 12.5356 16.208 12.5356 15.152V7.352H15.4876V14.528C15.4876 15.2 15.5916 15.776 15.7996 16.256C16.0076 16.72 16.3116 17.08 16.7116 17.336C17.1116 17.592 17.5916 17.72 18.1516 17.72C18.5676 17.72 18.9436 17.656 19.2796 17.528C19.6316 17.384 19.9356 17.192 20.1916 16.952C20.4476 16.696 20.6476 16.4 20.7916 16.064C20.9356 15.712 21.0076 15.336 21.0076 14.936V7.352H23.9596V20H21.0796L21.0316 17.36L21.5596 17.072C21.3676 17.68 21.0396 18.224 20.5756 18.704C20.1276 19.168 19.5916 19.544 18.9676 19.832C18.3436 20.104 17.6796 20.24 16.9756 20.24ZM32.2436 20.24C31.6836 20.24 31.1316 20.16 30.5876 20C30.0596 19.824 29.5796 19.592 29.1476 19.304C28.7156 19.016 28.3556 18.696 28.0676 18.344C27.7796 17.976 27.5876 17.608 27.4916 17.24L28.1876 16.928L28.1156 19.952H25.2596V2.24H28.2116V10.28L27.6836 10.04C27.7636 9.656 27.9396 9.296 28.2116 8.96C28.4996 8.608 28.8516 8.296 29.2676 8.024C29.6836 7.736 30.1396 7.512 30.6356 7.352C31.1316 7.176 31.6356 7.088 32.1476 7.088C33.2836 7.088 34.2836 7.368 35.1476 7.928C36.0276 8.488 36.7156 9.264 37.2116 10.256C37.7236 11.248 37.9796 12.376 37.9796 13.64C37.9796 14.92 37.7316 16.056 37.2356 17.048C36.7396 18.04 36.0516 18.824 35.1716 19.4C34.3076 19.96 33.3316 20.24 32.2436 20.24ZM31.6196 17.648C32.2916 17.648 32.8916 17.48 33.4196 17.144C33.9476 16.792 34.3636 16.32 34.6676 15.728C34.9716 15.12 35.1236 14.424 35.1236 13.64C35.1236 12.872 34.9716 12.192 34.6676 11.6C34.3796 11.008 33.9716 10.544 33.4436 10.208C32.9156 9.872 32.3076 9.704 31.6196 9.704C30.9316 9.704 30.3236 9.872 29.7956 10.208C29.2676 10.544 28.8516 11.008 28.5476 11.6C28.2436 12.192 28.0916 12.872 28.0916 13.64C28.0916 14.424 28.2436 15.12 28.5476 15.728C28.8516 16.32 29.2676 16.792 29.7956 17.144C30.3236 17.48 30.9316 17.648 31.6196 17.648ZM44.3791 20.24C43.0511 20.24 41.8751 19.96 40.8511 19.4C39.8431 18.84 39.0511 18.08 38.4751 17.12C37.9151 16.144 37.6351 15.032 37.6351 13.784C37.6351 12.792 37.7951 11.888 38.1151 11.072C38.4351 10.256 38.8751 9.552 39.4351 8.96C40.0111 8.352 40.6911 7.888 41.4751 7.568C42.2751 7.232 43.1471 7.064 44.0911 7.064C44.9231 7.064 45.6991 7.224 46.4191 7.544C47.1391 7.864 47.7631 8.304 48.2911 8.864C48.8191 9.408 49.2191 10.064 49.4911 10.832C49.7791 11.584 49.9151 12.408 49.8991 13.304L49.8751 14.336H39.6271L39.0751 12.32H47.4031L47.0191 12.728V12.2C46.9711 11.704 46.8111 11.272 46.5391 10.904C46.2671 10.52 45.9151 10.224 45.4831 10.016C45.0671 9.792 44.6031 9.68 44.0911 9.68C43.3071 9.68 42.6431 9.832 42.0991 10.136C41.5711 10.44 41.1711 10.88 40.8991 11.456C40.6271 12.016 40.4911 12.72 40.4911 13.568C40.4911 14.384 40.6591 15.096 40.9951 15.704C41.3471 16.312 41.8351 16.784 42.4591 17.12C43.0991 17.44 43.8431 17.6 44.6911 17.6C45.2831 17.6 45.8271 17.504 46.3231 17.312C46.8191 17.12 47.3551 16.776 47.9311 16.28L49.3951 18.32C48.9631 18.72 48.4671 19.064 47.9071 19.352C47.3631 19.624 46.7871 19.84 46.1791 20C45.5711 20.16 44.9711 20.24 44.3791 20.24Z"
        fill="#201F1D" />
    <path
        d="M52.1296 12.104C51.2016 12.232 50.4336 12.296 49.8256 12.296C49.6176 12.296 49.5136 12.216 49.5136 12.056C49.5136 11.688 49.7616 11.304 50.2576 10.904C50.7696 10.488 51.5936 10.128 52.7296 9.824C53.2416 8 53.8256 6.328 54.4816 4.808C52.8816 4.888 51.5696 5.416 50.5456 6.392C50.2896 6.648 50.0816 6.848 49.9216 6.992C49.7616 7.136 49.6176 7.208 49.4896 7.208C49.3776 7.208 49.2656 7.112 49.1536 6.92C49.0416 6.728 48.9856 6.472 48.9856 6.152C49.0016 4.92 49.8336 3.92 51.4816 3.152C53.1296 2.384 55.1616 2.008 57.5776 2.024L64.7776 2.144C65.2096 2.144 65.4256 2.312 65.4256 2.648C65.4256 2.744 65.3616 2.92 65.2336 3.176C65.1056 3.416 64.9936 3.68 64.8976 3.968C64.6896 4.544 64.2416 4.832 63.5536 4.832H62.7856L59.5936 4.808H57.7456C57.6176 5.72 57.2336 7.208 56.5936 9.272L60.9856 9.344C61.2416 9.344 61.3696 9.496 61.3696 9.8C61.3696 9.896 61.3296 10.064 61.2496 10.304C61.1696 10.544 61.0976 10.792 61.0336 11.048C60.9056 11.576 60.6336 11.84 60.2176 11.84L56.5696 11.672H56.2576C56.1616 11.672 56.0496 11.68 55.9216 11.696C55.0896 14.752 54.6736 17.168 54.6736 18.944C54.6736 19.888 53.7536 20.36 51.9136 20.36C51.5136 20.36 51.2736 20.16 51.1936 19.76C51.1296 19.344 51.0976 18.8 51.0976 18.128C51.0976 16.688 51.4416 14.68 52.1296 12.104ZM64.9531 20.072C63.3531 20.072 62.5531 18.576 62.5531 15.584C62.5531 13.952 62.7531 12.472 63.1531 11.144C63.7771 9.096 64.4811 8.072 65.2651 8.072C65.7291 8.072 66.0971 8.384 66.3691 9.008C66.5931 9.488 66.6971 9.96 66.6811 10.424C66.6811 11.064 66.4891 12.192 66.1051 13.808C65.7371 15.216 65.5531 16.088 65.5531 16.424C65.5531 16.76 65.6331 16.992 65.7931 17.12C65.9691 17.248 66.1691 17.312 66.3931 17.312C66.6331 17.312 66.9291 17.16 67.2811 16.856C67.6331 16.552 67.9851 16.224 68.3371 15.872C68.6891 15.504 69.0091 15.168 69.2971 14.864C69.6011 14.56 69.8091 14.408 69.9211 14.408C70.1451 14.408 70.2571 14.68 70.2571 15.224C70.2571 16.344 69.6891 17.44 68.5531 18.512C67.4331 19.568 66.2331 20.088 64.9531 20.072ZM65.9371 6.128C65.5051 5.488 65.2891 4.8 65.2891 4.064C65.2891 3.328 65.4011 2.72 65.6251 2.24C65.8651 1.744 66.0891 1.384 66.2971 1.16C66.5051 0.92 66.7451 0.8 67.0171 0.8C67.4651 0.8 67.8731 1.136 68.2411 1.808C68.6091 2.464 68.7931 3.016 68.7931 3.464C68.7931 4.296 68.4971 4.952 67.9051 5.432C67.3291 5.896 66.6731 6.128 65.9371 6.128ZM69.1535 18.704C68.9775 18.272 68.8495 17.776 68.7695 17.216C68.6895 16.64 68.6495 15.84 68.6495 14.816C68.6495 13.792 68.8415 12.408 69.2255 10.664H68.1455C67.9535 10.664 67.8575 10.584 67.8575 10.424C67.8575 10.04 67.8895 9.728 67.9535 9.488C68.0335 9.232 68.2095 8.944 68.4815 8.624H69.0575C69.2815 8.624 69.5215 8.616 69.7775 8.6C70.5455 6.136 71.3295 4.904 72.1295 4.904C72.7695 4.92 73.2175 5.328 73.4735 6.128C73.5375 6.352 73.6095 6.592 73.6895 6.848L72.7055 8.576C73.8255 8.608 74.5295 8.624 74.8175 8.624C75.1215 8.624 75.2815 8.656 75.2975 8.72C75.3295 8.768 75.3455 8.848 75.3455 8.96C75.3455 9.248 75.2735 9.608 75.1295 10.04C75.0015 10.472 74.8495 10.68 74.6735 10.664L72.2735 10.544C71.9375 12.496 71.7695 14.112 71.7695 15.392C71.7695 16.672 71.9535 17.312 72.3215 17.312C72.6255 17.312 73.1775 17.064 73.9775 16.568C74.7775 16.056 75.3535 15.568 75.7055 15.104C76.0575 14.64 76.3455 14.408 76.5695 14.408C76.7935 14.408 76.9055 14.68 76.9055 15.224C76.9055 15.768 76.7135 16.328 76.3295 16.904C75.9455 17.464 75.4575 17.984 74.8655 18.464C74.2895 18.928 73.6415 19.312 72.9215 19.616C72.2175 19.92 71.6015 20.072 71.0735 20.072C70.5455 20.072 70.1375 19.952 69.8495 19.712C69.5775 19.456 69.3455 19.12 69.1535 18.704Z"
        fill="#E67E22" />
</svg>