<svg width="28" height="19" viewBox="0 0 28 19" fill="none" xmlns="http://www.w3.org/2000/svg">
<path d="M3.488 14.136L2.912 11.376L8.912 5.352H12.848L3.488 14.136ZM0.728 18V0.24H3.68V18H0.728ZM9.272 18L4.616 12.36L6.704 10.584L12.92 18H9.272Z" fill="#201F1D"/>
<path d="M14.4768 10.104C13.5488 10.232 12.7808 10.296 12.1728 10.296C11.9648 10.296 11.8608 10.216 11.8608 10.056C11.8608 9.688 12.1088 9.304 12.6048 8.904C13.1168 8.488 13.9408 8.128 15.0768 7.824C15.5888 6 16.1728 4.328 16.8288 2.808C15.2288 2.888 13.9168 3.416 12.8928 4.392C12.6368 4.648 12.4288 4.848 12.2688 4.992C12.1088 5.136 11.9648 5.208 11.8368 5.208C11.7248 5.208 11.6128 5.112 11.5008 4.92C11.3888 4.728 11.3328 4.472 11.3328 4.152C11.3488 2.92 12.1808 1.92 13.8288 1.152C15.4768 0.383999 17.5088 0.00799894 19.9248 0.0239997L27.1248 0.144C27.5568 0.144 27.7728 0.311999 27.7728 0.647999C27.7728 0.743999 27.7088 0.92 27.5808 1.176C27.4528 1.416 27.3408 1.68 27.2448 1.968C27.0368 2.544 26.5888 2.832 25.9008 2.832H25.1328L21.9408 2.808H20.0928C19.9648 3.72 19.5808 5.208 18.9408 7.272L23.3328 7.344C23.5888 7.344 23.7168 7.496 23.7168 7.8C23.7168 7.896 23.6768 8.064 23.5968 8.304C23.5168 8.544 23.4448 8.792 23.3808 9.048C23.2528 9.576 22.9808 9.84 22.5648 9.84L18.9168 9.672H18.6048C18.5088 9.672 18.3968 9.68 18.2688 9.696C17.4368 12.752 17.0208 15.168 17.0208 16.944C17.0208 17.888 16.1008 18.36 14.2608 18.36C13.8608 18.36 13.6208 18.16 13.5408 17.76C13.4768 17.344 13.4448 16.8 13.4448 16.128C13.4448 14.688 13.7888 12.68 14.4768 10.104Z" fill="#E67E22"/>
</svg>
