<svg width="21" height="18" viewBox="0 0 21 18" fill="none" xmlns="http://www.w3.org/2000/svg">
<path d="M10.3585 18L7.1585 15.15C5.9585 14.0667 4.92916 13.1 4.0705 12.25C3.21183 11.4 2.50383 10.6 1.9465 9.85C1.38917 9.1 0.980832 8.375 0.721499 7.675C0.462165 6.975 0.332832 6.24167 0.333499 5.475C0.333499 3.90833 0.858499 2.60433 1.9085 1.563C2.9585 0.521667 4.26683 0.000666667 5.8335 0C6.70017 0 7.52517 0.183333 8.3085 0.55C9.09183 0.916667 9.77517 1.43333 10.3585 2.1C10.9418 1.43333 11.6252 0.916667 12.4085 0.55C13.1918 0.183333 14.0168 0 14.8835 0C16.4502 0 17.7585 0.521 18.8085 1.563C19.8585 2.605 20.3835 3.909 20.3835 5.475C20.3835 6.24167 20.2545 6.975 19.9965 7.675C19.7385 8.375 19.3302 9.1 18.7715 9.85C18.2128 10.6 17.5045 11.4 16.6465 12.25C15.7885 13.1 14.7592 14.0667 13.5585 15.15L10.3585 18ZM5.1835 10.5H15.5335C15.8002 10.2167 16.0418 9.954 16.2585 9.712C16.4752 9.47 16.6752 9.23267 16.8585 9H3.8585C4.04183 9.23333 4.24183 9.471 4.4585 9.713C4.67517 9.955 4.91683 10.2173 5.1835 10.5ZM10.3585 15.3C10.9585 14.7667 11.5212 14.271 12.0465 13.813C12.5718 13.355 13.0508 12.9173 13.4835 12.5H7.2335C7.66683 12.9167 8.14616 13.3543 8.6715 13.813C9.19683 14.2717 9.75916 14.7673 10.3585 15.3Z" fill="white"/>
</svg>
