<svg width="17" height="22" viewBox="0 0 17 22" fill="none" xmlns="http://www.w3.org/2000/svg">
<path d="M8.3584 16.5C8.88883 16.5 9.39754 16.2893 9.77261 15.9142C10.1477 15.5391 10.3584 15.0304 10.3584 14.5C10.3584 13.9696 10.1477 13.4609 9.77261 13.0858C9.39754 12.7107 8.88883 12.5 8.3584 12.5C7.82797 12.5 7.31926 12.7107 6.94419 13.0858C6.56911 13.4609 6.3584 13.9696 6.3584 14.5C6.3584 15.0304 6.56911 15.5391 6.94419 15.9142C7.31926 16.2893 7.82797 16.5 8.3584 16.5ZM14.3584 7.5C14.8888 7.5 15.3975 7.71071 15.7726 8.08579C16.1477 8.46086 16.3584 8.96957 16.3584 9.5V19.5C16.3584 20.0304 16.1477 20.5391 15.7726 20.9142C15.3975 21.2893 14.8888 21.5 14.3584 21.5H2.3584C1.82797 21.5 1.31926 21.2893 0.944185 20.9142C0.569112 20.5391 0.358398 20.0304 0.358398 19.5V9.5C0.358398 8.96957 0.569112 8.46086 0.944185 8.08579C1.31926 7.71071 1.82797 7.5 2.3584 7.5H3.3584V5.5C3.3584 4.17392 3.88518 2.90215 4.82286 1.96447C5.76055 1.02678 7.03232 0.5 8.3584 0.5C9.01501 0.5 9.66519 0.629329 10.2718 0.880602C10.8784 1.13188 11.4296 1.50017 11.8939 1.96447C12.3582 2.42876 12.7265 2.97995 12.9778 3.58658C13.2291 4.19321 13.3584 4.84339 13.3584 5.5V7.5H14.3584ZM8.3584 2.5C7.56275 2.5 6.79969 2.81607 6.23708 3.37868C5.67447 3.94129 5.3584 4.70435 5.3584 5.5V7.5H11.3584V5.5C11.3584 4.70435 11.0423 3.94129 10.4797 3.37868C9.91711 2.81607 9.15405 2.5 8.3584 2.5Z" fill="white"/>
</svg>
