<svg width="19" height="20" viewBox="0 0 19 20" fill="none" xmlns="http://www.w3.org/2000/svg">
<path d="M11.9167 19.8921C11.7333 19.9754 11.546 19.9797 11.3547 19.9051C11.1633 19.8304 11.0257 19.7011 10.9417 19.5171L10.8167 19.2421C10.6833 18.9587 10.5873 18.6631 10.5287 18.3551C10.47 18.0471 10.441 17.7344 10.4417 17.4171C10.4417 17.0504 10.4833 16.6881 10.5667 16.3301C10.65 15.9721 10.775 15.6261 10.9417 15.2921C11.075 15.0087 11.1917 14.7214 11.2917 14.4301C11.3917 14.1387 11.4417 13.8344 11.4417 13.5171C11.4417 13.2671 11.4123 13.0254 11.3537 12.7921C11.295 12.5587 11.216 12.3254 11.1167 12.0921L11.0917 12.0421C11.0083 11.8587 11.004 11.6671 11.0787 11.4671C11.1533 11.2671 11.2826 11.1254 11.4667 11.0421C11.6507 10.9587 11.838 10.9547 12.0287 11.0301C12.2193 11.1054 12.357 11.2344 12.4417 11.4171L12.5667 11.6421C12.7 11.9254 12.796 12.2254 12.8547 12.5421C12.9133 12.8587 12.9423 13.1837 12.9417 13.5171C12.9417 13.8837 12.9 14.2421 12.8167 14.5921C12.7333 14.9421 12.6083 15.2837 12.4417 15.6171C12.3083 15.9004 12.1917 16.1921 12.0917 16.4921C11.9916 16.7921 11.9417 17.1004 11.9417 17.4171C11.9417 17.6504 11.9667 17.8797 12.0167 18.1051C12.0667 18.3304 12.1417 18.5511 12.2417 18.7671L12.2917 18.8921C12.375 19.0754 12.3793 19.2671 12.3047 19.4671C12.23 19.6671 12.1007 19.8087 11.9167 19.8921ZM14.9167 19.8921C14.7333 19.9754 14.546 19.9797 14.3547 19.9051C14.1633 19.8304 14.0257 19.7011 13.9417 19.5171L13.8167 19.2421C13.6833 18.9587 13.5873 18.6631 13.5287 18.3551C13.47 18.0471 13.441 17.7344 13.4417 17.4171C13.4417 17.0504 13.4833 16.6881 13.5667 16.3301C13.65 15.9721 13.775 15.6261 13.9417 15.2921C14.075 15.0087 14.1917 14.7214 14.2917 14.4301C14.3917 14.1387 14.4417 13.8344 14.4417 13.5171C14.4417 13.2671 14.4123 13.0254 14.3537 12.7921C14.295 12.5587 14.216 12.3254 14.1166 12.0921L14.0917 12.0421C14.0083 11.8587 14.0043 11.6671 14.0797 11.4671C14.155 11.2671 14.284 11.1254 14.4667 11.0421C14.6493 10.9587 14.837 10.9547 15.0296 11.0301C15.2223 11.1054 15.3597 11.2344 15.4417 11.4171L15.5667 11.6421C15.7 11.9421 15.796 12.2464 15.8547 12.5551C15.9133 12.8637 15.9423 13.1844 15.9417 13.5171C15.9417 13.8837 15.9 14.2421 15.8167 14.5921C15.7333 14.9421 15.6083 15.2837 15.4417 15.6171C15.3083 15.9004 15.1917 16.1921 15.0917 16.4921C14.9916 16.7921 14.9417 17.1004 14.9417 17.4171C14.9417 17.6504 14.9667 17.8797 15.0167 18.1051C15.0667 18.3304 15.1416 18.5511 15.2416 18.7671L15.2917 18.8921C15.375 19.0754 15.3793 19.2671 15.3047 19.4671C15.23 19.6671 15.1007 19.8087 14.9167 19.8921ZM17.4667 11.0421C17.65 10.9587 17.8377 10.9547 18.0296 11.0301C18.2216 11.1054 18.359 11.2344 18.4417 11.4171L18.5667 11.6421C18.7 11.9254 18.796 12.2254 18.8547 12.5421C18.9133 12.8587 18.9423 13.1837 18.9417 13.5171C18.9417 13.8837 18.9 14.2464 18.8167 14.6051C18.7333 14.9637 18.6083 15.3094 18.4417 15.6421C18.3083 15.9254 18.1917 16.2131 18.0917 16.5051C17.9916 16.7971 17.9417 17.1011 17.9417 17.4171C17.9417 17.6504 17.9667 17.8797 18.0167 18.1051C18.0667 18.3304 18.1416 18.5511 18.2416 18.7671L18.2917 18.8921C18.3417 18.9921 18.3666 19.0921 18.3666 19.1921C18.3666 19.2921 18.35 19.3837 18.3167 19.4671C18.2833 19.5504 18.2333 19.6297 18.1667 19.7051C18.1 19.7804 18.0167 19.8427 17.9167 19.8921C17.7333 19.9754 17.546 19.9797 17.3547 19.9051C17.1633 19.8304 17.0257 19.7011 16.9417 19.5171L16.8167 19.2421C16.6833 18.9587 16.5873 18.6631 16.5287 18.3551C16.47 18.0471 16.441 17.7344 16.4417 17.4171C16.4417 17.0504 16.4833 16.6881 16.5667 16.3301C16.65 15.9721 16.775 15.6261 16.9417 15.2921C17.075 15.0087 17.1917 14.7214 17.2917 14.4301C17.3917 14.1387 17.4417 13.8344 17.4417 13.5171C17.4417 13.2671 17.4123 13.0254 17.3537 12.7921C17.295 12.5587 17.216 12.3254 17.1166 12.0921L17.0917 12.0421C17.0083 11.8587 17.0043 11.6671 17.0797 11.4671C17.155 11.2671 17.284 11.1254 17.4667 11.0421ZM8.44165 0.0420532C8.57498 0.0420532 8.69598 0.0627199 8.80465 0.104053C8.91332 0.145387 9.00898 0.208053 9.09165 0.292053C10.1917 1.27539 11.296 2.35472 12.4047 3.53005C13.5133 4.70539 14.4423 5.96772 15.1917 7.31705C15.375 7.65039 15.3667 7.97139 15.1667 8.28005C14.9667 8.58872 14.675 8.74272 14.2917 8.74205H10.4417C9.89165 8.74205 9.42098 8.93805 9.02965 9.33005C8.63832 9.72205 8.44232 10.1927 8.44165 10.7421V18.5921C8.44165 18.9254 8.33332 19.1837 8.11665 19.3671C7.89998 19.5504 7.63332 19.6421 7.31665 19.6421C5.04998 19.6421 3.33765 18.8837 2.17965 17.3671C1.02165 15.8504 0.442317 13.9004 0.44165 11.5171C0.44165 10.4337 0.683317 9.36272 1.16665 8.30405C1.64998 7.24539 2.25832 6.23305 2.99165 5.26705C3.72498 4.30105 4.52098 3.39272 5.37965 2.54205C6.23832 1.69139 7.03398 0.941387 7.76665 0.292053C7.86665 0.20872 7.97498 0.146387 8.09165 0.105053C8.20832 0.0637199 8.32498 0.0427199 8.44165 0.0420532Z" fill="white"/>
</svg>
