<svg class="header-top__logo " xmlns="http://www.w3.org/2000/svg" width="63.519" height="43" viewBox="0 0 63.519 43">
    <g id="Group_100486" data-name="Group 100486" transform="translate(-205.604 -183.48)">
        <path id="Path_133446" data-name="Path 133446"
            d="M221.23,239.055l-6-8.065H205.6v33.222h9.623V247.028l6,8.111,6.094-8.111v17.184h9.623V230.99h-9.623Z"
            transform="translate(0 -37.737)"></path>
        <g id="Group_95382" data-name="Group 95382" transform="translate(205.665 183.48)">
            <g id="Group_95389" data-name="Group 95389" transform="translate(0 0)">
                <path id="Path_133447" data-name="Path 133447"
                    d="M376.478,231.24v15.087l17.008-14.657c-.223-.065-.447-.126-.672-.179a9.161,9.161,0,0,0-2.085-.252Z"
                    transform="translate(-341.39 -221.416)"></path>
                <path id="Path_133448" data-name="Path 133448" d="M376.478,334.3h15.809q.511,0,1-.047l-16.813-15.032Z"
                    transform="translate(-341.39 -291.296)"></path>
                <path id="Path_133449" data-name="Path 133449"
                    d="M207.689,186.366l1.162,1.7h.286l1.162-1.7v3.016h1.788v-5.894h-1.583l-1.511,2.115-1.511-2.115H205.9v5.894h1.789Z"
                    transform="translate(-205.901 -183.487)"></path>
                <path id="Path_133450" data-name="Path 133450"
                    d="M243.837,189.47a2.288,2.288,0,0,0,2.539-2.505v-3.476h-1.788v3.363c0,.737-.215,1.04-.751,1.04-.519,0-.733-.295-.733-1.04v-3.363h-1.788v3.476a2.24,2.24,0,0,0,2.522,2.505"
                    transform="translate(-234.03 -183.487)"></path>
                <path id="Path_133451" data-name="Path 133451"
                    d="M271.132,186.946l.733.257c.3.1.394.231.394.4,0,.283-.224.428-.563.428a2.515,2.515,0,0,1-1.306-.47l-.4,1.472a4.739,4.739,0,0,0,1.931.428,1.946,1.946,0,0,0,2.182-1.943c0-.762-.393-1.249-1.368-1.609l-.751-.282a.375.375,0,0,1-.3-.377c0-.231.178-.376.518-.376a2.863,2.863,0,0,1,1.341.411l.483-1.421a4.586,4.586,0,0,0-1.9-.385,1.954,1.954,0,0,0-2.218,1.883,1.541,1.541,0,0,0,1.225,1.584"
                    transform="translate(-256.741 -183.48)"></path>
                <path id="Path_133452" data-name="Path 133452" d="M324.392,187.883h-2.333v-4.395H320.27v5.894h4.122Z"
                    transform="translate(-296.744 -183.487)"></path>
                <path id="Path_133453" data-name="Path 133453"
                    d="M344.146,189.383h4.328v-1.5h-2.62v-.78h2.066v-1.4h-2.066v-.711h2.62v-1.5h-4.328Z"
                    transform="translate(-315.708 -183.487)"></path>
                <path id="Path_133454" data-name="Path 133454"
                    d="M374.71,187.753a1.359,1.359,0,0,0-1.028-1.447,1.311,1.311,0,0,0,.617-1.2c0-1.1-.671-1.612-1.9-1.612h-2.6v5.894h2.951c1.252,0,1.958-.615,1.958-1.63m-3.12-2.965h.474c.313,0,.438.191.438.468s-.116.477-.447.477h-.465Zm.8,3.294h-.8v-1.023h.778c.349,0,.483.217.483.52a.442.442,0,0,1-.456.5"
                    transform="translate(-336.086 -183.486)"></path>
                <path id="Path_133455" data-name="Path 133455" d="M400.61,187.883h-2.333v-4.395h-1.789v5.894h4.122Z"
                    transform="translate(-357.284 -183.487)"></path>
                <path id="Path_133456" data-name="Path 133456"
                    d="M421.407,188.412h1.752l.251.971h1.779l-1.859-5.894h-2.083l-1.851,5.894h1.77Zm.885-3.216.447,1.95h-.9Z"
                    transform="translate(-375.479 -183.486)"></path>
                <path id="Path_133457" data-name="Path 133457"
                    d="M454.293,187.883h-2.012l2.012-3.207v-1.188h-4.31v1.5h2.038l-2.038,3.208v1.187h4.31Z"
                    transform="translate(-399.775 -183.487)"></path>
                <path id="Path_133458" data-name="Path 133458"
                    d="M478.736,187.883h-2.62v-.78h2.066v-1.4h-2.066v-.711h2.62v-1.5h-4.328v5.894h4.328Z"
                    transform="translate(-419.176 -183.487)"></path>
                <path id="Path_133459" data-name="Path 133459"
                    d="M292.761,186.74a2.772,2.772,0,0,0,2.76,2.957,3.285,3.285,0,0,0,2.164-.841l-.694-1.449a2.315,2.315,0,0,1-1.306.662c-.664,0-1.038-.421-1.078-1.333.041-.911.415-1.333,1.078-1.333a2.315,2.315,0,0,1,1.306.662l.694-1.449a3.285,3.285,0,0,0-2.164-.841,2.772,2.772,0,0,0-2.76,2.957h0v.008Z"
                    transform="translate(-274.893 -183.714)"></path>
                <path id="Path_133460" data-name="Path 133460"
                    d="M506.607,186.677a.388.388,0,0,0,.144-.192.429.429,0,0,0,.021-.14.471.471,0,0,0-.032-.174.4.4,0,0,0-.094-.142.459.459,0,0,0-.15-.1.525.525,0,0,0-.2-.036h-.574v1.465h.286v-.584h.206l.286.584h.331l-.327-.632a.4.4,0,0,0,.1-.052m-.177-.194a.212.212,0,0,1-.151.053h-.27v-.385h.27a.213.213,0,0,1,.151.053.2.2,0,0,1,0,.278"
                    transform="translate(-444.049 -185.399)"></path>
                <path id="Path_133461" data-name="Path 133461"
                    d="M503.671,183.481a1.229,1.229,0,1,0,1.229,1.229,1.231,1.231,0,0,0-1.229-1.229m0,2.319a1.09,1.09,0,1,1,1.09-1.09,1.091,1.091,0,0,1-1.09,1.09"
                    transform="translate(-441.442 -183.481)"></path>
                <path id="Path_133462" data-name="Path 133462"
                    d="M403.407,255.727a8.558,8.558,0,0,0-.94-2.13A10.756,10.756,0,0,0,401,251.718a7.842,7.842,0,0,0-1.856-1.421,9.044,9.044,0,0,0,2.383-3.116,8.755,8.755,0,0,0,.825-3.712,9.107,9.107,0,0,0-.6-3.23,8.689,8.689,0,0,0-1.787-2.864,7.79,7.79,0,0,0-1.535-1.329,11.672,11.672,0,0,0-1.925-1.031c-.052-.022-.1-.042-.157-.062h0l-.015-.006-.02-.008h0l-.343-.129-.27.239h0l-.034.029-7.078,6.1h1.342a3.317,3.317,0,0,1,2.291.864,2.711,2.711,0,0,1,.962,2.092,2.779,2.779,0,0,1-.962,2.115,3.264,3.264,0,0,1-2.291.887h-1.971v-5.415l-9.486,8.175v1.542l9.212,8.236v-6.168h2.52a3.633,3.633,0,0,1,2.566.979,3.133,3.133,0,0,1,0,4.687,3.632,3.632,0,0,1-2.566.978h-1.987l7.28,6.509.433.389.143-.033.039-.009a9.369,9.369,0,0,0,1.607-.511,10.625,10.625,0,0,0,3.139-2.016,9.029,9.029,0,0,0,2.108-2.956,8.785,8.785,0,0,0,.756-3.62,7.938,7.938,0,0,0-.32-2.177"
                    transform="translate(-342.978 -224.252)" fill="#ffbe00"></path>
            </g>
        </g>
    </g>
</svg>