<svg width="38" height="38" viewBox="0 0 38 38" fill="none" xmlns="http://www.w3.org/2000/svg">
<path d="M9.50006 28.5C8.87017 28.5 8.26608 28.2498 7.82068 27.8044C7.37528 27.359 7.12506 26.7549 7.12506 26.125V20.3252C7.12506 19.6954 7.37528 19.0913 7.82068 18.6459C8.26608 18.2005 8.87017 17.9503 9.50006 17.9503H12.7966C12.7966 17.1158 12.7475 16.2814 12.6493 15.447C12.5021 14.5635 12.2566 13.7782 11.9131 13.091C11.5695 12.4038 11.1269 11.8631 10.5854 11.4689C10.0471 11.0271 9.35993 10.8063 8.52393 10.8063V7.125C9.89826 7.125 11.1016 7.4195 12.1339 8.0085C13.1591 8.59008 14.0399 9.39539 14.7108 10.3645C15.3862 11.4312 15.8836 12.6008 16.1833 13.8273C16.4864 15.1804 16.6346 16.5636 16.6251 17.9503V26.125C16.6251 26.7549 16.3748 27.359 15.9294 27.8044C15.484 28.2498 14.8799 28.5 14.2501 28.5H9.50006ZM23.7501 28.5C23.1202 28.5 22.5161 28.2498 22.0707 27.8044C21.6253 27.359 21.3751 26.7549 21.3751 26.125V20.3252C21.3751 19.6954 21.6253 19.0913 22.0707 18.6459C22.5161 18.2005 23.1202 17.9503 23.7501 17.9503H27.0466C27.0466 17.1158 26.9975 16.2814 26.8993 15.447C26.7505 14.5635 26.5051 13.7782 26.1631 13.091C25.8195 12.4038 25.3769 11.8631 24.8354 11.4689C24.2971 11.0271 23.6099 10.8063 22.7739 10.8063V7.125C24.1483 7.125 25.3516 7.4195 26.3839 8.0085C27.4091 8.59008 28.2899 9.39539 28.9608 10.3645C29.6362 11.4312 30.1336 12.6008 30.4333 13.8273C30.7364 15.1804 30.8846 16.5636 30.8751 17.9503V26.125C30.8751 26.7549 30.6248 27.359 30.1794 27.8044C29.734 28.2498 29.1299 28.5 28.5001 28.5H23.7501Z" fill="#1A5E63"/>
</svg>
