<svg width="32" height="32" viewBox="0 0 32 32" fill="none" xmlns="http://www.w3.org/2000/svg">
<path d="M4.94791 21.74L4.31289 18.6972L10.9277 12.0559H15.2671L4.94791 21.74ZM1.90508 26V6.42002H5.15959V26H1.90508ZM11.3246 26L6.19151 19.782L8.49348 17.824L15.3465 26H11.3246Z" fill="white"/>
<path d="M17.0628 17.2948C16.0397 17.436 15.193 17.5065 14.5227 17.5065C14.2934 17.5065 14.1787 17.4183 14.1787 17.2419C14.1787 16.8362 14.4522 16.4129 14.999 15.9719C15.5634 15.5132 16.4719 15.1164 17.7243 14.7812C18.2888 12.7703 18.9326 10.9269 19.6558 9.25118C17.8919 9.33938 16.4454 9.92149 15.3165 10.9975C15.0343 11.2797 14.8049 11.5002 14.6285 11.659C14.4522 11.8177 14.2934 11.8971 14.1523 11.8971C14.0288 11.8971 13.9053 11.7913 13.7818 11.5796C13.6584 11.3679 13.5966 11.0857 13.5966 10.7329C13.6143 9.37466 14.5315 8.27218 16.3484 7.42548C18.1653 6.57878 20.4055 6.16425 23.0691 6.18189L31.0069 6.31419C31.4832 6.31419 31.7213 6.4994 31.7213 6.86983C31.7213 6.97567 31.6508 7.16971 31.5097 7.45194C31.3685 7.71653 31.2451 8.00759 31.1392 8.3251C30.9099 8.96013 30.416 9.27764 29.6575 9.27764H28.8108L25.2917 9.25118H23.2543C23.1132 10.2566 22.6899 11.8971 21.9843 14.1726L26.8263 14.252C27.1086 14.252 27.2497 14.4196 27.2497 14.7547C27.2497 14.8606 27.2056 15.0458 27.1174 15.3104C27.0292 15.575 26.9498 15.8484 26.8793 16.1306C26.7381 16.7127 26.4383 17.0038 25.9796 17.0038L21.9578 16.8186H21.6138C21.508 16.8186 21.3845 16.8274 21.2434 16.845C20.3261 20.2142 19.8675 22.8778 19.8675 24.8358C19.8675 25.8765 18.8532 26.3969 16.8247 26.3969C16.3837 26.3969 16.1191 26.1764 16.0309 25.7354C15.9603 25.2768 15.9251 24.677 15.9251 23.9362C15.9251 22.3486 16.3043 20.1348 17.0628 17.2948Z" fill="#E67E22"/>
</svg>
