<svg width="21" height="20" viewBox="0 0 21 20" fill="none" xmlns="http://www.w3.org/2000/svg">
<path fill-rule="evenodd" clip-rule="evenodd" d="M0.69165 19.2308C0.69165 19.0268 0.772694 18.8311 0.916953 18.6868C1.06121 18.5426 1.25687 18.4615 1.46088 18.4615H19.9224C20.1264 18.4615 20.3221 18.5426 20.4663 18.6868C20.6106 18.8311 20.6917 19.0268 20.6917 19.2308C20.6917 19.4348 20.6106 19.6304 20.4663 19.7747C20.3221 19.919 20.1264 20 19.9224 20H1.46088C1.25687 20 1.06121 19.919 0.916953 19.7747C0.772694 19.6304 0.69165 19.4348 0.69165 19.2308Z" fill="white"/>
<path d="M6.07638 9.23077H2.99946C2.57462 9.23077 2.23022 9.57517 2.23022 10V19.2308C2.23022 19.6556 2.57462 20 2.99946 20H6.07638C6.50121 20 6.84561 19.6556 6.84561 19.2308V10C6.84561 9.57517 6.50121 9.23077 6.07638 9.23077Z" fill="white"/>
<path d="M12.2302 0H9.15326C8.72843 0 8.38403 0.344396 8.38403 0.769231V19.2308C8.38403 19.6556 8.72843 20 9.15326 20H12.2302C12.655 20 12.9994 19.6556 12.9994 19.2308V0.769231C12.9994 0.344396 12.655 0 12.2302 0Z" fill="white"/>
<path d="M18.384 4.61539H15.3071C14.8822 4.61539 14.5378 4.95978 14.5378 5.38462V19.2308C14.5378 19.6556 14.8822 20 15.3071 20H18.384C18.8088 20 19.1532 19.6556 19.1532 19.2308V5.38462C19.1532 4.95978 18.8088 4.61539 18.384 4.61539Z" fill="white"/>
</svg>
