<svg width="21" height="20" viewBox="0 0 21 20" fill="none" xmlns="http://www.w3.org/2000/svg">
<path d="M5.0249 5.5C6.12947 5.5 7.0249 4.60457 7.0249 3.5C7.0249 2.39543 6.12947 1.5 5.0249 1.5C3.92033 1.5 3.0249 2.39543 3.0249 3.5C3.0249 4.60457 3.92033 5.5 5.0249 5.5Z" fill="white"/>
<path d="M19.0249 9.5H9.1749C8.8649 9.28 8.5849 9.04 8.3549 8.78L6.9549 7.23C6.7649 7.02 6.5249 6.85 6.2649 6.73C5.9749 6.59 5.6449 6.5 5.3049 6.5H5.2749C4.0349 6.5 3.0249 7.51 3.0249 8.75V9.5H1.0249C0.474902 9.5 0.0249023 9.95 0.0249023 10.5V17.5C0.0249023 18.6 0.924902 19.5 2.0249 19.5H18.0249C19.1249 19.5 20.0249 18.6 20.0249 17.5V10.5C20.0249 9.95 19.5749 9.5 19.0249 9.5ZM5.0249 16.5C5.0249 17.05 4.5749 17.5 4.0249 17.5C3.4749 17.5 3.0249 17.05 3.0249 16.5V12.5C3.0249 11.95 3.4749 11.5 4.0249 11.5C4.5749 11.5 5.0249 11.95 5.0249 12.5V16.5ZM9.0249 16.5C9.0249 17.05 8.5749 17.5 8.0249 17.5C7.4749 17.5 7.0249 17.05 7.0249 16.5V12.5C7.0249 11.95 7.4749 11.5 8.0249 11.5C8.5749 11.5 9.0249 11.95 9.0249 12.5V16.5ZM13.0249 16.5C13.0249 17.05 12.5749 17.5 12.0249 17.5C11.4749 17.5 11.0249 17.05 11.0249 16.5V12.5C11.0249 11.95 11.4749 11.5 12.0249 11.5C12.5749 11.5 13.0249 11.95 13.0249 12.5V16.5ZM17.0249 16.5C17.0249 17.05 16.5749 17.5 16.0249 17.5C15.4749 17.5 15.0249 17.05 15.0249 16.5V12.5C15.0249 11.95 15.4749 11.5 16.0249 11.5C16.5749 11.5 17.0249 11.95 17.0249 12.5V16.5ZM13.0849 7.5C13.5849 7.5 14.0149 7.11 14.0249 6.61C14.0649 5.21 13.4449 4.13 12.6749 3.36C12.0249 2.64 11.8749 2.09 11.9049 1.45C11.9249 0.93 11.4949 0.5 10.9649 0.5C10.4649 0.5 10.0349 0.9 10.0249 1.4C9.9949 2.69 10.5249 3.83 11.3749 4.65C11.9849 5.24 12.1549 5.92 12.1549 6.54C12.1449 7.06 12.5549 7.5 13.0849 7.5ZM17.0849 7.5C17.5849 7.5 18.0149 7.11 18.0249 6.61C18.0649 5.21 17.4449 4.13 16.6749 3.36C16.0249 2.64 15.8749 2.09 15.9049 1.45C15.9249 0.93 15.4949 0.5 14.9649 0.5C14.4649 0.5 14.0349 0.9 14.0249 1.4C13.9949 2.69 14.5249 3.83 15.3749 4.65C15.9849 5.24 16.1549 5.92 16.1549 6.54C16.1449 7.06 16.5549 7.5 17.0849 7.5Z" fill="white"/>
</svg>
